<?xml version="1.0" encoding="UTF-8" standalone="no"?>
<!-- Created with Inkscape (http://www.inkscape.org/) -->

<svg
   xmlns:dc="http://purl.org/dc/elements/1.1/"
   xmlns:cc="http://creativecommons.org/ns#"
   xmlns:rdf="http://www.w3.org/1999/02/22-rdf-syntax-ns#"
   xmlns:svg="http://www.w3.org/2000/svg"
   xmlns="http://www.w3.org/2000/svg"
   xmlns:sodipodi="http://sodipodi.sourceforge.net/DTD/sodipodi-0.dtd"
   xmlns:inkscape="http://www.inkscape.org/namespaces/inkscape"
   width="320"
   height="240"
   viewBox="0 0 84.666665 63.500002"
   version="1.1"
   id="lcarsclock"
   inkscape:version="0.92.4 (5da689c313, 2019-01-14)"
   sodipodi:docname="lcarsclock.svg">
  <defs
     id="defs4569" />
  <sodipodi:namedview
     id="base"
     pagecolor="#ffffff"
     bordercolor="#666666"
     borderopacity="1.0"
     inkscape:pageopacity="0.0"
     inkscape:pageshadow="2"
     inkscape:zoom="1.8862773"
     inkscape:cx="183.77062"
     inkscape:cy="116.98901"
     inkscape:document-units="px"
     inkscape:current-layer="layer1"
     showgrid="false"
     units="px"
     inkscape:window-width="1366"
     inkscape:window-height="704"
     inkscape:window-x="0"
     inkscape:window-y="27"
     inkscape:window-maximized="1"
     showguides="false" />
  <metadata
     id="metadata4572">
    <rdf:RDF>
      <cc:Work
         rdf:about="">
        <dc:format>image/svg+xml</dc:format>
        <dc:type
           rdf:resource="http://purl.org/dc/dcmitype/StillImage" />
        <dc:title />
        <cc:license
           rdf:resource="http://creativecommons.org/publicdomain/zero/1.0/" />
      </cc:Work>
      <cc:License
         rdf:about="http://creativecommons.org/publicdomain/zero/1.0/">
        <cc:permits
           rdf:resource="http://creativecommons.org/ns#Reproduction" />
        <cc:permits
           rdf:resource="http://creativecommons.org/ns#Distribution" />
        <cc:permits
           rdf:resource="http://creativecommons.org/ns#DerivativeWorks" />
      </cc:License>
    </rdf:RDF>
  </metadata>
  <g
     inkscape:label="Ebene 1"
     inkscape:groupmode="layer"
     id="layer1"
     transform="translate(0,-233.49999)">
    <rect
       style="fill:#000000;fill-opacity:1;stroke:none;stroke-width:0.05291667;stroke-miterlimit:4;stroke-dasharray:none;stroke-opacity:0.36470588"
       id="rect4816"
       width="84.666664"
       height="63.5"
       x="4.3795811e-14"
       y="233.49998" />
    <path
       inkscape:connector-curvature="0"
       id="path4818"
       d="m 3.7041688,267.63124 a 1.5875,1.5875 0 0 0 1.5875,-1.5875 v -6.61459 h -3.96875 v 5.29167 A 1.3229166,1.3229166 0 0 1 7.529299e-7,266.04374 v 1.5875 z"
       style="fill:#f7e2ac;fill-opacity:1;stroke:none;stroke-width:0.0485858;stroke-miterlimit:4;stroke-dasharray:none;stroke-opacity:0.36470588" />
    <path
       style="fill:#acc2e6;fill-opacity:1;stroke:none;stroke-width:0.0485858;stroke-miterlimit:4;stroke-dasharray:none;stroke-opacity:0.36470588"
       d="m 3.7041688,274.77498 a 1.5875,1.5875 0 0 1 1.5875,1.5875 v 6.61459 h -3.96875 V 277.6854 A 1.3229166,1.3229166 0 0 0 7.529299e-7,276.36248 v -1.5875 z"
       id="path4820"
       inkscape:connector-curvature="0" />
    <path
       style="fill:#acc2e6;fill-opacity:1;stroke:none;stroke-width:0.0485858;stroke-miterlimit:4;stroke-dasharray:none;stroke-opacity:0.36470588"
       d="m 2.9104168,233.49999 a 1.5875,1.5875 0 0 0 -1.5875,1.5875 v 6.61459 h 3.96875 v -5.29167 a 1.3229166,1.3229166 0 0 1 1.322918,-1.32292 v -1.5875 z"
       id="path4843"
       inkscape:connector-curvature="0" />
    <path
       inkscape:connector-curvature="0"
       id="path4845"
       d="m 2.9104168,296.99999 a 1.5875,1.5875 0 0 1 -1.5875,-1.5875 v -6.61459 h 3.96875 v 5.29167 a 1.3229166,1.3229166 0 0 0 1.322918,1.32292 v 1.5875 z"
       style="fill:#f7e2ac;fill-opacity:1;stroke:none;stroke-width:0.0485858;stroke-miterlimit:4;stroke-dasharray:none;stroke-opacity:0.36470588" />
    <path
       inkscape:connector-curvature="0"
       id="path4847"
       d="m 81.756252,233.49999 a 1.5875,1.5875 0 0 1 1.5875,1.5875 v 6.61459 h -3.96875 v -5.29167 a 1.3229166,1.3229166 0 0 0 -1.322918,-1.32292 v -1.5875 z"
       style="fill:#cbd0b7;fill-opacity:1;stroke:none;stroke-width:0.0485858;stroke-miterlimit:4;stroke-dasharray:none;stroke-opacity:0.36470588" />
    <path
       style="fill:#dfb4a8;fill-opacity:1;stroke:none;stroke-width:0.0485858;stroke-miterlimit:4;stroke-dasharray:none;stroke-opacity:0.36470588"
       d="m 81.756252,296.99999 a 1.5875,1.5875 0 0 0 1.5875,-1.5875 v -6.61459 h -3.96875 v 5.29167 a 1.3229166,1.3229166 0 0 1 -1.322918,1.32292 v 1.5875 z"
       id="path4849"
       inkscape:connector-curvature="0" />
    <rect
       style="fill:#f7e2ac;fill-opacity:1;stroke:none;stroke-width:0.03741774;stroke-miterlimit:4;stroke-dasharray:none;stroke-opacity:0.36470588"
       id="rect4853"
       width="5.2916665"
       height="1.5875"
       x="63.5"
       y="233.49998" />
    <rect
       y="233.49998"
       x="21.166668"
       height="1.5875"
       width="13.229167"
       id="rect4856"
       style="fill:#cbd0b7;fill-opacity:1;stroke:none;stroke-width:0.05916264;stroke-miterlimit:4;stroke-dasharray:none;stroke-opacity:0.36470588" />
    <rect
       style="fill:#dfb4a8;fill-opacity:1;stroke:none;stroke-width:0.05291668;stroke-miterlimit:4;stroke-dasharray:none;stroke-opacity:0.36470588"
       id="rect4858"
       width="10.583333"
       height="1.5875"
       x="35.718754"
       y="233.49998" />
    <rect
       y="233.49998"
       x="51.593754"
       height="1.5875"
       width="10.583333"
       id="rect4860"
       style="fill:#cbd0b7;fill-opacity:1;stroke:none;stroke-width:0.05291667;stroke-miterlimit:4;stroke-dasharray:none;stroke-opacity:0.36470588" />
    <rect
       style="fill:#f7e2ac;fill-opacity:1;stroke:none;stroke-width:0.02645834;stroke-miterlimit:4;stroke-dasharray:none;stroke-opacity:0.36470588"
       id="rect4862"
       width="2.6458333"
       height="1.5875"
       x="47.625004"
       y="233.49998" />
    <rect
       y="233.49998"
       x="7.9375"
       height="1.5875"
       width="11.90625"
       id="rect4864"
       style="fill:#acc2e6;fill-opacity:1;stroke:none;stroke-width:0.05612661;stroke-miterlimit:4;stroke-dasharray:none;stroke-opacity:0.36470588" />
    <rect
       y="233.49998"
       x="70.114586"
       height="1.5875"
       width="6.6145835"
       id="rect4870"
       style="fill:#f7e2ac;fill-opacity:1;stroke:none;stroke-width:0.04183431;stroke-miterlimit:4;stroke-dasharray:none;stroke-opacity:0.36470588" />
    <path
       style="fill:#f7e2ac;fill-opacity:1;stroke:none;stroke-width:0.0485858;stroke-miterlimit:4;stroke-dasharray:none;stroke-opacity:0.36470588"
       d="m 80.962499,270.54166 a 1.5875,1.5875 0 0 1 -1.5875,-1.5875 v -6.61459 h 3.96875 v 5.29167 a 1.3229166,1.3229166 0 0 0 1.322918,1.32292 v 1.5875 z"
       id="path4905"
       inkscape:connector-curvature="0" />
    <path
       inkscape:connector-curvature="0"
       id="path4907"
       d="m 80.962499,271.86457 a 1.5875,1.5875 0 0 0 -1.5875,1.5875 v 6.61459 h 3.96875 v -5.29167 a 1.3229166,1.3229166 0 0 1 1.322918,-1.32292 v -1.5875 z"
       style="fill:#dfb4a8;fill-opacity:1;stroke:none;stroke-width:0.0485858;stroke-miterlimit:4;stroke-dasharray:none;stroke-opacity:0.36470588" />
    <rect
       style="fill:#dfb4a8;fill-opacity:1;stroke:none;stroke-width:0.03366124;stroke-miterlimit:4;stroke-dasharray:none;stroke-opacity:0.36470588"
       id="rect4926"
       width="3.96875"
       height="3.175"
       x="1.3229218"
       y="284.30002" />
    <rect
       y="-252.28542"
       x="1.3229218"
       height="9.260417"
       width="3.96875"
       id="rect4928"
       style="fill:#dfb4a8;fill-opacity:1;stroke:none;stroke-width:0.0574875;stroke-miterlimit:4;stroke-dasharray:none;stroke-opacity:0.36470588"
       transform="scale(1,-1)" />
    <rect
       style="fill:#acc2e6;fill-opacity:1;stroke:none;stroke-width:0.04006489;stroke-miterlimit:4;stroke-dasharray:none;stroke-opacity:0.36470588"
       id="rect4930"
       width="3.96875"
       height="4.4979167"
       x="1.3229218"
       y="-258.10623"
       transform="scale(1,-1)" />
    <rect
       y="281.38959"
       x="79.375"
       height="6.0854168"
       width="3.96875"
       id="rect4932"
       style="fill:#cbd0b7;fill-opacity:1;stroke:none;stroke-width:0.04660187;stroke-miterlimit:4;stroke-dasharray:none;stroke-opacity:0.36470588" />
    <rect
       style="fill:#f7e2ac;fill-opacity:1;stroke:none;stroke-width:0.0574875;stroke-miterlimit:4;stroke-dasharray:none;stroke-opacity:0.36470588"
       id="rect4934"
       width="3.96875"
       height="9.260417"
       x="79.375"
       y="-252.28542"
       transform="scale(1,-1)" />
    <rect
       y="-261.01666"
       x="79.375"
       height="7.4083333"
       width="3.96875"
       id="rect4936"
       style="fill:#dfb4a8;fill-opacity:1;stroke:none;stroke-width:0.05141839;stroke-miterlimit:4;stroke-dasharray:none;stroke-opacity:0.36470588"
       transform="scale(1,-1)" />
    <rect
       y="295.41248"
       x="-21.166672"
       height="1.5875"
       width="5.2916665"
       id="rect4938"
       style="fill:#f7e2ac;fill-opacity:1;stroke:none;stroke-width:0.03741774;stroke-miterlimit:4;stroke-dasharray:none;stroke-opacity:0.36470588"
       transform="scale(-1,1)" />
    <rect
       style="fill:#cbd0b7;fill-opacity:1;stroke:none;stroke-width:0.05916264;stroke-miterlimit:4;stroke-dasharray:none;stroke-opacity:0.36470588"
       id="rect4940"
       width="13.229167"
       height="1.5875"
       x="-63.5"
       y="295.41248"
       transform="scale(-1,1)" />
    <rect
       y="295.41248"
       x="-48.947914"
       height="1.5875"
       width="10.583333"
       id="rect4942"
       style="fill:#dfb4a8;fill-opacity:1;stroke:none;stroke-width:0.05291668;stroke-miterlimit:4;stroke-dasharray:none;stroke-opacity:0.36470588"
       transform="scale(-1,1)" />
    <rect
       style="fill:#cbd0b7;fill-opacity:1;stroke:none;stroke-width:0.05291667;stroke-miterlimit:4;stroke-dasharray:none;stroke-opacity:0.36470588"
       id="rect4944"
       width="10.583333"
       height="1.5875"
       x="-33.072914"
       y="295.41248"
       transform="scale(-1,1)" />
    <rect
       y="295.41248"
       x="-37.041664"
       height="1.5875"
       width="2.6458333"
       id="rect4946"
       style="fill:#f7e2ac;fill-opacity:1;stroke:none;stroke-width:0.02645834;stroke-miterlimit:4;stroke-dasharray:none;stroke-opacity:0.36470588"
       transform="scale(-1,1)" />
    <rect
       style="fill:#acc2e6;fill-opacity:1;stroke:none;stroke-width:0.05612661;stroke-miterlimit:4;stroke-dasharray:none;stroke-opacity:0.36470588"
       id="rect4948"
       width="11.90625"
       height="1.5875"
       x="-76.729172"
       y="295.41248"
       transform="scale(-1,1)" />
    <rect
       style="fill:#f7e2ac;fill-opacity:1;stroke:none;stroke-width:0.04183431;stroke-miterlimit:4;stroke-dasharray:none;stroke-opacity:0.36470588"
       id="rect4950"
       width="6.6145835"
       height="1.5875"
       x="-14.552086"
       y="295.41248"
       transform="scale(-1,1)" />
    <path
       inkscape:connector-curvature="0"
       id="rect4826"
       d="m 7.937506,262.33957 v 5.29167 a 1.3229166,1.3229166 0 0 1 -1.3229167,1.32292 H 5.953131 6.0862631e-6 v 1.5875 H 5.2952901 9.0723203 9.3431049 10.318756 a 1.5875,1.5875 0 0 0 1.5875,-1.5875 v -6.61459 z"
       style="fill:#acc2e6;fill-opacity:1;stroke:none;stroke-width:0.05291667;stroke-miterlimit:4;stroke-dasharray:none;stroke-opacity:0.36470588" />
    <path
       style="fill:#f7e2ac;fill-opacity:1;stroke:none;stroke-width:0.2;stroke-miterlimit:4;stroke-dasharray:none;stroke-opacity:0.36470588"
       d="M 5 145 L 5 151 L 22.5 151 L 25 151 A 4.9999996 4.9999996 0 0 1 30 156 L 30 165 A 5.9999999 5.9999999 0 0 0 36 171 L 50 171 L 50 165 A 4.9999996 4.9999996 0 0 1 45 160 L 45 156 L 45 151 A 5.9999999 5.9999999 0 0 0 39 145 L 20.013672 145 L 5 145 z "
       transform="matrix(0.26458333,0,0,0.26458333,0,233.49999)"
       id="path4893" />
    <path
       inkscape:connector-curvature="0"
       id="path4909"
       d="m 76.729167,262.33957 v 5.29167 a 1.3229166,1.3229166 0 0 0 1.322917,1.32292 h 0.661458 a 2.248958,2.248958 0 0 0 0.657841,1.5875 h -1.319299 -2.728516 -0.97565 a 1.5875,1.5875 0 0 1 -1.5875,-1.5875 v -6.61459 z"
       style="fill:#cbd0b7;fill-opacity:1;stroke:none;stroke-width:0.05291667;stroke-miterlimit:4;stroke-dasharray:none;stroke-opacity:0.36470588" />
    <path
       style="fill:#acc2e6;fill-opacity:1;stroke:none;stroke-width:0.2;stroke-miterlimit:4;stroke-dasharray:none;stroke-opacity:0.36470588"
       d="M 281 145 A 5.9999999 5.9999999 0 0 0 275 151 L 275 160 A 4.9999996 4.9999996 0 0 1 270 165 L 270 171 L 284 171 A 5.9999999 5.9999999 0 0 0 290 165 L 290 162.77734 L 290 160 L 290 156 A 4.9999996 4.9999996 0 0 1 295 151 L 297.5 151 A 8.4999989 8.4999989 0 0 1 299.98633 145 L 295 145 L 284.6875 145 L 281 145 z "
       transform="matrix(0.26458333,0,0,0.26458333,0,233.49999)"
       id="path4911" />
    <path
       inkscape:connector-curvature="0"
       id="path4903"
       d="m 9.5249998,253.07914 a 1.5875,1.5875 0 0 0 -1.5875,1.5875 v 6.61459 h 3.9687512 v -5.29167 a 1.3229166,1.3229166 0 0 1 1.322918,-1.32292 v -1.5875 z"
       style="fill:#f7e2ac;fill-opacity:1;stroke:none;stroke-width:0.0485858;stroke-miterlimit:4;stroke-dasharray:none;stroke-opacity:0.36470588" />
    <path
       style="fill:#cbd0b7;fill-opacity:1;stroke:none;stroke-width:0.0485858;stroke-miterlimit:4;stroke-dasharray:none;stroke-opacity:0.36470588"
       d="m 75.141667,253.07914 a 1.5875,1.5875 0 0 1 1.5875,1.5875 v 6.61459 h -3.968749 v -5.29167 A 1.3229166,1.3229166 0 0 0 71.4375,254.66664 v -1.5875 z"
       id="path4915"
       inkscape:connector-curvature="0" />
    <rect
       y="253.07915"
       x="56.885414"
       height="1.5875"
       width="5.2916665"
       id="rect4962"
       style="fill:#f7e2ac;fill-opacity:1;stroke:none;stroke-width:0.03741774;stroke-miterlimit:4;stroke-dasharray:none;stroke-opacity:0.36470588" />
    <rect
       style="fill:#acc2e6;fill-opacity:1;stroke:none;stroke-width:0.05916264;stroke-miterlimit:4;stroke-dasharray:none;stroke-opacity:0.36470588"
       id="rect4964"
       width="13.229167"
       height="1.5875"
       x="14.552086"
       y="253.07915" />
    <rect
       y="253.07915"
       x="29.104172"
       height="1.5875"
       width="10.583333"
       id="rect4966"
       style="fill:#dfb4a8;fill-opacity:1;stroke:none;stroke-width:0.05291668;stroke-miterlimit:4;stroke-dasharray:none;stroke-opacity:0.36470588" />
    <rect
       style="fill:#cbd0b7;fill-opacity:1;stroke:none;stroke-width:0.05291667;stroke-miterlimit:4;stroke-dasharray:none;stroke-opacity:0.36470588"
       id="rect4968"
       width="10.583333"
       height="1.5875"
       x="44.979168"
       y="253.07915" />
    <rect
       y="253.07915"
       x="41.010418"
       height="1.5875"
       width="2.6458333"
       id="rect4970"
       style="fill:#f7e2ac;fill-opacity:1;stroke:none;stroke-width:0.02645834;stroke-miterlimit:4;stroke-dasharray:none;stroke-opacity:0.36470588" />
    <rect
       y="253.07915"
       x="63.5"
       height="1.5875"
       width="6.6145835"
       id="rect4972"
       style="fill:#f7e2ac;fill-opacity:1;stroke:none;stroke-width:0.04183431;stroke-miterlimit:4;stroke-dasharray:none;stroke-opacity:0.36470588" />
    <rect
       style="fill:#f7e2ac;fill-opacity:1;stroke:none;stroke-width:0.03741774;stroke-miterlimit:4;stroke-dasharray:none;stroke-opacity:0.36470588"
       id="rect4974"
       width="5.2916665"
       height="1.5875"
       x="-27.781254"
       y="277.15625"
       transform="scale(-1,1)" />
    <rect
       y="277.15625"
       x="-70.114586"
       height="1.5875"
       width="13.229167"
       id="rect4976"
       style="fill:#cbd0b7;fill-opacity:1;stroke:none;stroke-width:0.05916264;stroke-miterlimit:4;stroke-dasharray:none;stroke-opacity:0.36470588"
       transform="scale(-1,1)" />
    <rect
       style="fill:#dfb4a8;fill-opacity:1;stroke:none;stroke-width:0.05291668;stroke-miterlimit:4;stroke-dasharray:none;stroke-opacity:0.36470588"
       id="rect4978"
       width="10.583333"
       height="1.5875"
       x="-55.562496"
       y="277.15625"
       transform="scale(-1,1)" />
    <rect
       y="277.15625"
       x="-39.6875"
       height="1.5875"
       width="10.583333"
       id="rect4980"
       style="fill:#cbd0b7;fill-opacity:1;stroke:none;stroke-width:0.05291667;stroke-miterlimit:4;stroke-dasharray:none;stroke-opacity:0.36470588"
       transform="scale(-1,1)" />
    <rect
       style="fill:#f7e2ac;fill-opacity:1;stroke:none;stroke-width:0.02645834;stroke-miterlimit:4;stroke-dasharray:none;stroke-opacity:0.36470588"
       id="rect4982"
       width="2.6458333"
       height="1.5875"
       x="-43.65625"
       y="277.15625"
       transform="scale(-1,1)" />
    <rect
       style="fill:#f7e2ac;fill-opacity:1;stroke:none;stroke-width:0.04183431;stroke-miterlimit:4;stroke-dasharray:none;stroke-opacity:0.36470588"
       id="rect4984"
       width="6.6145835"
       height="1.5875"
       x="-21.166668"
       y="277.15625"
       transform="scale(-1,1)" />
    <path
       style="fill:#b43c3c;fill-opacity:1;stroke:none;stroke-width:0.01659444;stroke-miterlimit:4;stroke-dasharray:none;stroke-opacity:0.36470588"
       d="m 15.213601,255.98957 a 1.9841926,1.9843728 0 0 0 -1.718602,0.99218 1.9841926,1.9843728 0 0 0 0,1.98438 1.9841926,1.9843728 0 0 0 1.718602,0.99219 h 0.661398 v -3.96875 z"
       id="path5141"
       inkscape:connector-curvature="0" />
    <path
       id="path4599"
       d="m 69.452977,255.98957 a 1.9843728,1.9843728 0 0 1 1.718758,0.99218 1.9843728,1.9843728 0 0 1 0,1.98438 1.9843728,1.9843728 0 0 1 -1.718758,0.99219 h -0.661459 v -3.96875 z"
       style="fill:#b43c3c;fill-opacity:1;stroke:none;stroke-width:0.01659519;stroke-miterlimit:4;stroke-dasharray:none;stroke-opacity:0.36470588"
       inkscape:connector-curvature="0" />
    <path
       inkscape:connector-curvature="0"
       id="path4601"
       d="m 15.213601,261.28123 a 1.9841926,1.9843728 0 0 0 -1.718602,0.99218 1.9841926,1.9843728 0 0 0 0,1.98438 1.9841926,1.9843728 0 0 0 1.718602,0.99219 h 0.661398 v -3.96875 z"
       style="fill:#0073be;fill-opacity:1;stroke:none;stroke-width:0.01659444;stroke-miterlimit:4;stroke-dasharray:none;stroke-opacity:0.36470588" />
    <path
       inkscape:connector-curvature="0"
       style="fill:#0073be;fill-opacity:1;stroke:none;stroke-width:0.01659519;stroke-miterlimit:4;stroke-dasharray:none;stroke-opacity:0.36470588"
       d="m 69.452977,261.28123 a 1.9843728,1.9843728 0 0 1 1.718758,0.99218 1.9843728,1.9843728 0 0 1 0,1.98438 1.9843728,1.9843728 0 0 1 -1.718758,0.99219 h -0.661459 v -3.96875 z"
       id="path4605" />
    <path
       style="fill:#e6b414;fill-opacity:1;stroke:none;stroke-width:0.01659444;stroke-miterlimit:4;stroke-dasharray:none;stroke-opacity:0.36470588"
       d="m 15.213601,271.86457 a 1.9841926,1.9843728 0 0 0 -1.718602,0.99218 1.9841926,1.9843728 0 0 0 0,1.98438 1.9841926,1.9843728 0 0 0 1.718602,0.99219 h 0.661398 v -3.96875 z"
       id="path4607"
       inkscape:connector-curvature="0" />
    <path
       id="path4611"
       d="m 69.452977,271.86457 a 1.9843728,1.9843728 0 0 1 1.718758,0.99218 1.9843728,1.9843728 0 0 1 0,1.98438 1.9843728,1.9843728 0 0 1 -1.718758,0.99219 h -0.661459 v -3.96875 z"
       style="fill:#e6b414;fill-opacity:1;stroke:none;stroke-width:0.01659519;stroke-miterlimit:4;stroke-dasharray:none;stroke-opacity:0.36470588"
       inkscape:connector-curvature="0" />
    <path
       inkscape:connector-curvature="0"
       id="path4613"
       d="m 15.213601,266.5729 a 1.9841926,1.9843728 0 0 0 -1.718602,0.99218 1.9841926,1.9843728 0 0 0 0,1.98438 1.9841926,1.9843728 0 0 0 1.718602,0.99219 h 0.661398 v -3.96875 z"
       style="fill:#82965a;fill-opacity:1;stroke:none;stroke-width:0.01659444;stroke-miterlimit:4;stroke-dasharray:none;stroke-opacity:0.36470588" />
    <path
       inkscape:connector-curvature="0"
       style="fill:#82965a;fill-opacity:1;stroke:none;stroke-width:0.01659519;stroke-miterlimit:4;stroke-dasharray:none;stroke-opacity:0.36470588"
       d="m 69.452977,266.5729 a 1.9843728,1.9843728 0 0 1 1.718758,0.99218 1.9843728,1.9843728 0 0 1 0,1.98438 1.9843728,1.9843728 0 0 1 -1.718758,0.99219 h -0.661459 v -3.96875 z"
       id="path4617" />
    <rect
       style="opacity:1;fill:#ffffff;fill-opacity:1;stroke:none;stroke-width:0.35277778;stroke-linecap:round;stroke-linejoin:round;stroke-miterlimit:4;stroke-dasharray:none;stroke-opacity:0.78431373;paint-order:markers fill stroke"
       id="rect882"
       width="4.2333312"
       height="9.4799998e-06"
       x="3.7041686"
       y="274.77496" />
    <rect
       style="fill:#b43c3c;fill-opacity:1;stroke:none;stroke-width:0.03611092;stroke-miterlimit:4;stroke-dasharray:none;stroke-opacity:0.36470588"
       id="green"
       width="50.270832"
       height="3.96875"
       x="17.197916"
       y="255.98956" />
    <rect
       y="261.28122"
       x="17.197916"
       height="3.96875"
       width="50.270832"
       id="rect4603"
       style="fill:#0073be;fill-opacity:1;stroke:none;stroke-width:0.03611092;stroke-miterlimit:4;stroke-dasharray:none;stroke-opacity:0.36470588" />
    <rect
       style="fill:#e6b414;fill-opacity:1;stroke:none;stroke-width:0.03611092;stroke-miterlimit:4;stroke-dasharray:none;stroke-opacity:0.36470588"
       id="rect4609"
       width="50.270832"
       height="3.96875"
       x="17.197916"
       y="271.86453" />
    <rect
       y="266.57288"
       x="17.197916"
       height="3.96875"
       width="50.270832"
       id="rect4615"
       style="fill:#82965a;fill-opacity:1;stroke:none;stroke-width:0.03611092;stroke-miterlimit:4;stroke-dasharray:none;stroke-opacity:0.36470588" />
  </g>
</svg>
